<?xml version="1.0" encoding="UTF-8" standalone="no"?>
<svg
   width="16"
   height="16"
   fill="currentColor"
   class="bi bi-messenger"
   viewBox="0 0 16 16"
   version="1.1"
   id="svg1012"
   sodipodi:docname="messenger.svg"
   inkscape:export-filename="messenger.webp"
   inkscape:export-xdpi="240"
   inkscape:export-ydpi="240"
   inkscape:version="1.2.2 (732a01da63, 2022-12-09)"
   xmlns:inkscape="http://www.inkscape.org/namespaces/inkscape"
   xmlns:sodipodi="http://sodipodi.sourceforge.net/DTD/sodipodi-0.dtd"
   xmlns="http://www.w3.org/2000/svg"
   xmlns:svg="http://www.w3.org/2000/svg">
  <defs
     id="defs1016" />
  <sodipodi:namedview
     id="namedview1014"
     pagecolor="#ffffff"
     bordercolor="#000000"
     borderopacity="0.25"
     inkscape:showpageshadow="2"
     inkscape:pageopacity="0.0"
     inkscape:pagecheckerboard="0"
     inkscape:deskcolor="#d1d1d1"
     showgrid="false"
     inkscape:zoom="51.8125"
     inkscape:cx="6.7647768"
     inkscape:cy="8.0096502"
     inkscape:window-width="1920"
     inkscape:window-height="1009"
     inkscape:window-x="-8"
     inkscape:window-y="-8"
     inkscape:window-maximized="1"
     inkscape:current-layer="svg1012" />
  <path
     d="M0 7.76C0 3.301 3.493 0 8 0s8 3.301 8 7.76-3.493 7.76-8 7.76c-.81 0-1.586-.107-2.316-.307a.639.639 0 0 0-.427.03l-1.588.702a.64.64 0 0 1-.898-.566l-.044-1.423a.639.639 0 0 0-.215-.456C.956 12.108 0 10.092 0 7.76m5.546-1.459-2.35 3.728c-.225.358.214.761.551.506l2.525-1.916a.48.48 0 0 1 .578-.002l1.869 1.402a1.2 1.2 0 0 0 1.735-.32l2.35-3.728c.226-.358-.214-.761-.551-.506L9.728 7.381a.48.48 0 0 1-.578.002L7.281 5.98a1.2 1.2 0 0 0-1.735.32z"
     id="path1010" />
</svg>
