<?xml version="1.0" encoding="UTF-8" standalone="no"?>
<svg
   width="16"
   height="16"
   fill="currentColor"
   class="bi bi-paypal"
   viewBox="0 0 16 16"
   version="1.1"
   id="svg635"
   sodipodi:docname="paypal.svg"
   inkscape:export-filename="paypal.webp"
   inkscape:export-xdpi="240"
   inkscape:export-ydpi="240"
   inkscape:version="1.2.2 (732a01da63, 2022-12-09)"
   xmlns:inkscape="http://www.inkscape.org/namespaces/inkscape"
   xmlns:sodipodi="http://sodipodi.sourceforge.net/DTD/sodipodi-0.dtd"
   xmlns="http://www.w3.org/2000/svg"
   xmlns:svg="http://www.w3.org/2000/svg">
  <defs
     id="defs639" />
  <sodipodi:namedview
     id="namedview637"
     pagecolor="#ffffff"
     bordercolor="#000000"
     borderopacity="0.25"
     inkscape:showpageshadow="2"
     inkscape:pageopacity="0.0"
     inkscape:pagecheckerboard="0"
     inkscape:deskcolor="#d1d1d1"
     showgrid="false"
     inkscape:zoom="51.8125"
     inkscape:cx="6.7647768"
     inkscape:cy="8.0096502"
     inkscape:window-width="1920"
     inkscape:window-height="1009"
     inkscape:window-x="-8"
     inkscape:window-y="-8"
     inkscape:window-maximized="1"
     inkscape:current-layer="svg635" />
  <path
     d="M14.06 3.713c.12-1.071-.093-1.832-.702-2.526C12.628.356 11.312 0 9.626 0H4.734a.7.7 0 0 0-.691.59L2.005 13.509a.42.42 0 0 0 .415.486h2.756l-.202 1.28a.628.628 0 0 0 .62.726H8.14c.429 0 .793-.31.862-.731l.025-.13.48-3.043.03-.164.001-.007a.351.351 0 0 1 .348-.297h.38c1.266 0 2.425-.256 3.345-.91.379-.27.712-.603.993-1.005a4.942 4.942 0 0 0 .88-2.195c.242-1.246.13-2.356-.57-3.154a2.687 2.687 0 0 0-.76-.59l-.094-.061ZM6.543 8.82a.695.695 0 0 1 .321-.079H8.3c2.82 0 5.027-1.144 5.672-4.456l.003-.016c.217.124.4.27.548.438.546.623.679 1.535.45 2.71-.272 1.397-.866 2.307-1.663 2.874-.802.57-1.842.815-3.043.815h-.38a.873.873 0 0 0-.863.734l-.03.164-.48 3.043-.024.13-.001.004a.352.352 0 0 1-.348.296H5.595a.106.106 0 0 1-.105-.123l.208-1.32.845-5.214Z"
     id="path633" />
</svg>
