<?xml version="1.0" encoding="UTF-8" standalone="no"?>
<svg
   width="16"
   height="16"
   fill="currentColor"
   class="bi bi-slack"
   viewBox="0 0 16 16"
   version="1.1"
   id="svg4"
   sodipodi:docname="slack.svg"
   inkscape:export-filename="slack.webp"
   inkscape:export-xdpi="240"
   inkscape:export-ydpi="240"
   inkscape:version="1.2.2 (732a01da63, 2022-12-09)"
   xmlns:inkscape="http://www.inkscape.org/namespaces/inkscape"
   xmlns:sodipodi="http://sodipodi.sourceforge.net/DTD/sodipodi-0.dtd"
   xmlns="http://www.w3.org/2000/svg"
   xmlns:svg="http://www.w3.org/2000/svg">
  <defs
     id="defs8" />
  <sodipodi:namedview
     id="namedview6"
     pagecolor="#ffffff"
     bordercolor="#000000"
     borderopacity="0.25"
     inkscape:showpageshadow="2"
     inkscape:pageopacity="0.0"
     inkscape:pagecheckerboard="0"
     inkscape:deskcolor="#d1d1d1"
     showgrid="false"
     inkscape:zoom="51.8125"
     inkscape:cx="6.7647768"
     inkscape:cy="8.0096502"
     inkscape:window-width="1920"
     inkscape:window-height="1009"
     inkscape:window-x="-8"
     inkscape:window-y="-8"
     inkscape:window-maximized="1"
     inkscape:current-layer="svg4" />
  <path
     d="M3.362 10.11c0 .926-.756 1.681-1.681 1.681S0 11.036 0 10.111C0 9.186.756 8.43 1.68 8.43h1.682zm.846 0c0-.924.756-1.68 1.681-1.68s1.681.756 1.681 1.68v4.21c0 .924-.756 1.68-1.68 1.68a1.685 1.685 0 0 1-1.682-1.68zM5.89 3.362c-.926 0-1.682-.756-1.682-1.681S4.964 0 5.89 0s1.68.756 1.68 1.68v1.682zm0 .846c.924 0 1.68.756 1.68 1.681S6.814 7.57 5.89 7.57H1.68C.757 7.57 0 6.814 0 5.89c0-.926.756-1.682 1.68-1.682zm6.749 1.682c0-.926.755-1.682 1.68-1.682.925 0 1.681.756 1.681 1.681s-.756 1.681-1.68 1.681h-1.681zm-.848 0c0 .924-.755 1.68-1.68 1.68A1.685 1.685 0 0 1 8.43 5.89V1.68C8.43.757 9.186 0 10.11 0c.926 0 1.681.756 1.681 1.68zm-1.681 6.748c.926 0 1.682.756 1.682 1.681S11.036 16 10.11 16s-1.681-.756-1.681-1.68v-1.682h1.68zm0-.847c-.924 0-1.68-.755-1.68-1.68 0-.925.756-1.681 1.68-1.681h4.21c.924 0 1.68.756 1.68 1.68 0 .926-.756 1.681-1.68 1.681h-4.21z"
     id="path2" />
</svg>
