<?xml version="1.0" encoding="UTF-8" standalone="no"?>
<svg
   width="16"
   height="16"
   fill="currentColor"
   class="bi bi-threads"
   viewBox="0 0 16 16"
   version="1.1"
   id="svg135"
   sodipodi:docname="threads.svg"
   inkscape:export-filename="threads.webp"
   inkscape:export-xdpi="240"
   inkscape:export-ydpi="240"
   inkscape:version="1.2.2 (732a01da63, 2022-12-09)"
   xmlns:inkscape="http://www.inkscape.org/namespaces/inkscape"
   xmlns:sodipodi="http://sodipodi.sourceforge.net/DTD/sodipodi-0.dtd"
   xmlns="http://www.w3.org/2000/svg"
   xmlns:svg="http://www.w3.org/2000/svg">
  <defs
     id="defs139" />
  <sodipodi:namedview
     id="namedview137"
     pagecolor="#ffffff"
     bordercolor="#000000"
     borderopacity="0.25"
     inkscape:showpageshadow="2"
     inkscape:pageopacity="0.0"
     inkscape:pagecheckerboard="0"
     inkscape:deskcolor="#d1d1d1"
     showgrid="false"
     inkscape:zoom="51.8125"
     inkscape:cx="6.7647768"
     inkscape:cy="8.0096502"
     inkscape:window-width="1920"
     inkscape:window-height="1009"
     inkscape:window-x="-8"
     inkscape:window-y="-8"
     inkscape:window-maximized="1"
     inkscape:current-layer="svg135" />
  <path
     d="M6.321 6.016c-.27-.18-1.166-.802-1.166-.802.756-1.081 1.753-1.502 3.132-1.502.975 0 1.803.327 2.394.948.591.621.928 1.509 1.005 2.644.328.138.63.299.905.484 1.109.745 1.719 1.86 1.719 3.137 0 2.716-2.226 5.075-6.256 5.075C4.594 16 1 13.987 1 7.994 1 2.034 4.482 0 8.044 0 9.69 0 13.55.243 15 5.036l-1.36.353C12.516 1.974 10.163 1.43 8.006 1.43c-3.565 0-5.582 2.171-5.582 6.79 0 4.143 2.254 6.343 5.63 6.343 2.777 0 4.847-1.443 4.847-3.556 0-1.438-1.208-2.127-1.27-2.127-.236 1.234-.868 3.31-3.644 3.31-1.618 0-3.013-1.118-3.013-2.582 0-2.09 1.984-2.847 3.55-2.847.586 0 1.294.04 1.663.114 0-.637-.54-1.728-1.9-1.728-1.25 0-1.566.405-1.967.868ZM8.716 8.19c-2.04 0-2.304.87-2.304 1.416 0 .878 1.043 1.168 1.6 1.168 1.02 0 2.067-.282 2.232-2.423a6.217 6.217 0 0 0-1.528-.161"
     id="path133" />
</svg>
